<svg width="23" height="22" viewBox="0 0 23 22" fill="none" xmlns="http://www.w3.org/2000/svg">
<path d="M4 0.5H19C20.662 0.5 22 1.838 22 3.5V18.5C22 20.162 20.662 21.5 19 21.5H4C2.338 21.5 1 20.162 1 18.5V3.5C1 1.838 2.338 0.5 4 0.5Z" stroke="#6A6C6B" stroke-linecap="round" stroke-linejoin="round"/>
<path d="M5.5 5H7" stroke="#6A6C6B" stroke-linecap="round" stroke-linejoin="round"/>
<path d="M8.5 6.5C8.10217 6.5 7.72064 6.34196 7.43934 6.06066C7.15803 5.77936 7 5.39782 7 5C7 4.60218 7.15803 4.22064 7.43934 3.93934C7.72064 3.65804 8.10217 3.5 8.5 3.5C8.69698 3.5 8.89204 3.5388 9.07402 3.61418C9.25601 3.68956 9.42137 3.80005 9.56066 3.93934C9.69995 4.07863 9.81044 4.24399 9.88582 4.42597C9.9612 4.60796 10 4.80302 10 5C10 5.19698 9.9612 5.39204 9.88582 5.57403C9.81044 5.75601 9.69995 5.92137 9.56066 6.06066C9.42137 6.19995 9.25601 6.31044 9.07402 6.38582C8.89204 6.4612 8.69698 6.5 8.5 6.5Z" stroke="#6A6C6B" stroke-linecap="round" stroke-linejoin="round"/>
<path d="M10 5.00003L17.5 5" stroke="#6A6C6B" stroke-linecap="round" stroke-linejoin="round"/>
<path d="M17.5 11H16" stroke="#6A6C6B" stroke-linecap="round" stroke-linejoin="round"/>
<path d="M14.5 12.5C14.8978 12.5 15.2794 12.342 15.5607 12.0607C15.842 11.7794 16 11.3978 16 11C16 10.6022 15.842 10.2206 15.5607 9.93934C15.2794 9.65804 14.8978 9.5 14.5 9.5C14.1022 9.5 13.7206 9.65804 13.4393 9.93934C13.158 10.2206 13 10.6022 13 11C13 11.3978 13.158 11.7794 13.4393 12.0607C13.7206 12.342 14.1022 12.5 14.5 12.5Z" stroke="#6A6C6B" stroke-linecap="round" stroke-linejoin="round"/>
<path d="M13 11L5.5 11" stroke="#6A6C6B" stroke-linecap="round" stroke-linejoin="round"/>
<path d="M5.5 17H7" stroke="#6A6C6B" stroke-linecap="round" stroke-linejoin="round"/>
<path d="M8.5 18.5C8.10217 18.5 7.72064 18.342 7.43934 18.0607C7.15803 17.7794 7 17.3978 7 17C7 16.6022 7.15803 16.2206 7.43934 15.9393C7.72064 15.658 8.10217 15.5 8.5 15.5C8.69698 15.5 8.89204 15.5388 9.07402 15.6142C9.25601 15.6896 9.42137 15.8001 9.56066 15.9393C9.69995 16.0786 9.81044 16.244 9.88582 16.426C9.9612 16.608 10 16.803 10 17C10 17.197 9.9612 17.392 9.88582 17.574C9.81044 17.756 9.69995 17.9214 9.56066 18.0607C9.42137 18.1999 9.25601 18.3104 9.07402 18.3858C8.89204 18.4612 8.69698 18.5 8.5 18.5Z" stroke="#6A6C6B" stroke-linecap="round" stroke-linejoin="round"/>
<path d="M10 17L17.5 17" stroke="#6A6C6B" stroke-linecap="round" stroke-linejoin="round"/>
</svg>
