<svg width="45" height="45" viewBox="0 0 45 45" fill="none" xmlns="http://www.w3.org/2000/svg">
<path d="M27.9153 10.5846C29.6698 10.4749 31.4 11.0841 32.7036 12.2781C33.8977 13.5818 34.5069 15.3119 34.4094 17.0786V28.4583C34.5191 30.225 33.8977 31.9551 32.7158 33.2588C31.4121 34.4528 29.6698 35.062 27.9153 34.9524H16.5355C14.7688 35.062 13.0387 34.4528 11.735 33.2588C10.541 31.9551 9.93176 30.225 10.0414 28.4583V17.0786C9.93176 15.3119 10.541 13.5818 11.735 12.2781C13.0387 11.0841 14.7688 10.4749 16.5355 10.5846H27.9153ZM27.5985 16.1526C26.8431 15.3972 25.6247 15.3972 24.8693 16.1526L24.053 16.9811C23.9312 17.1029 23.9312 17.3101 24.053 17.4319C24.053 17.4319 24.0769 17.4557 24.1195 17.498L24.4192 17.7961C24.5925 17.9685 24.8089 18.1839 25.0262 18.4005L25.763 19.137C25.9167 19.2914 26.0187 19.3949 26.0268 19.4057C26.1608 19.5519 26.2461 19.7469 26.2461 19.9662C26.2461 20.4048 25.8928 20.7703 25.442 20.7703C25.2349 20.7703 25.0399 20.685 24.9059 20.551L22.8712 18.5285C22.7737 18.431 22.6031 18.431 22.5056 18.5285L16.6939 24.3402C16.2918 24.7423 16.0603 25.2783 16.0481 25.851L15.975 28.7386C15.975 28.897 16.0238 29.0432 16.1334 29.1528C16.2431 29.2625 16.3893 29.3234 16.5477 29.3234H19.4109C19.9957 29.3234 20.5562 29.0919 20.9826 28.6777L29.1825 20.4535C29.9257 19.6981 29.9257 18.4797 29.1825 17.7365L27.5985 16.1526Z" fill="#5D7285"/>
</svg>
