<svg width="45" height="45" viewBox="0 0 45 45" fill="none" xmlns="http://www.w3.org/2000/svg">
<path d="M18.7305 32.9257V29.1964C18.7305 28.2444 19.5079 27.4726 20.4669 27.4726H23.9724C24.4329 27.4726 24.8745 27.6542 25.2002 27.9775C25.5258 28.3008 25.7087 28.7392 25.7087 29.1964V32.9257C25.7058 33.3215 25.8622 33.7021 26.1431 33.983C26.424 34.2638 26.8062 34.4218 27.2049 34.4218H29.5965C30.7134 34.4247 31.7856 33.9862 32.5765 33.2031C33.3673 32.4201 33.8118 31.3568 33.8118 30.248V19.6236C33.8118 18.7279 33.4118 17.8783 32.7197 17.3036L24.5839 10.8531C23.1687 9.72214 21.141 9.75866 19.768 10.9399L11.8178 17.3036C11.093 17.8613 10.6598 18.7135 10.6384 19.6236V30.2371C10.6384 32.5482 12.5257 34.4218 14.8537 34.4218H17.1907C18.0188 34.4218 18.6918 33.7586 18.6978 32.9366L18.7305 32.9257Z" fill="#5D7285"/>
</svg>
