<svg width="30" height="30" viewBox="0 0 30 30" fill="none" xmlns="http://www.w3.org/2000/svg">
<path d="M14.6066 2.45966C17.6345 2.45966 20.1039 4.88676 20.1039 7.8749V13.717H12.6584C12.1248 13.717 11.7029 14.1317 11.7029 14.6562C11.7029 15.1684 12.1248 15.5953 12.6584 15.5953H20.1039V21.4252C20.1039 24.4134 17.6345 26.8527 14.5818 26.8527H8.53851C5.49825 26.8527 3.02881 24.4256 3.02881 21.4374V7.8871C3.02881 4.88676 5.51065 2.45966 8.55092 2.45966H14.6066ZM23.2021 10.4486C23.568 10.0705 24.1656 10.0705 24.5315 10.4364L28.0929 13.9856C28.2758 14.1685 28.3734 14.4003 28.3734 14.6564C28.3734 14.9003 28.2758 15.1443 28.0929 15.315L24.5315 18.8642C24.3485 19.0471 24.1046 19.1447 23.8729 19.1447C23.6289 19.1447 23.385 19.0471 23.2021 18.8642C22.8362 18.4983 22.8362 17.9007 23.2021 17.5348L25.1535 15.5955H20.1042V13.7173H25.1535L23.2021 11.778C22.8362 11.4121 22.8362 10.8145 23.2021 10.4486Z" fill="white"/>
</svg>
