<svg width="45" height="45" viewBox="0 0 45 45" fill="none" xmlns="http://www.w3.org/2000/svg">
<path d="M22.2314 10.2016C25.5 10.2016 28.1872 12.7701 28.3236 16.0246H28.2918C28.2956 16.1192 28.2774 16.2134 28.2387 16.2998H28.4291C29.9134 16.2998 31.4677 17.3286 32.0909 19.8122L32.1587 20.1052L33.0964 27.6606C33.7713 32.4794 31.1349 34.5059 27.5384 34.5917L27.2973 34.5946H17.1864C13.5314 34.5946 10.715 33.2627 11.3343 27.9884L11.3765 27.6606L12.325 20.1052C12.7928 17.4307 14.363 16.3758 15.876 16.3038L16.0438 16.2998H16.1392C16.1231 16.2088 16.1231 16.1157 16.1392 16.0246C16.2756 12.7701 18.9628 10.2016 22.2314 10.2016ZM18.6847 20.3604C18.0894 20.3604 17.6068 20.8571 17.6068 21.4699C17.6068 22.0826 18.0894 22.5793 18.6847 22.5793C19.2801 22.5793 19.7627 22.0826 19.7627 21.4699L19.7543 21.3307C19.6877 20.7837 19.2343 20.3604 18.6847 20.3604ZM25.7451 20.3604C25.1498 20.3604 24.6672 20.8571 24.6672 21.4699C24.6672 22.0826 25.1498 22.5793 25.7451 22.5793C26.3404 22.5793 26.823 22.0826 26.823 21.4699C26.823 20.8571 26.3404 20.3604 25.7451 20.3604ZM22.1836 11.7901C19.8369 11.7901 17.9345 13.6859 17.9345 16.0246C17.9505 16.1157 17.9505 16.2088 17.9345 16.2998H26.4859C26.4519 16.212 26.4339 16.1188 26.4328 16.0246C26.4328 13.6859 24.5304 11.7901 22.1836 11.7901Z" fill="#5D7285"/>
</svg>
