<svg width="45" height="45" viewBox="0 0 45 45" fill="none" xmlns="http://www.w3.org/2000/svg">
<path d="M27.3369 10.6584C31.1044 10.6584 33.2022 12.8294 33.2022 16.5493V29.1483C33.2022 32.9292 31.1044 35.0514 27.3369 35.0514H17.1151C13.4073 35.0514 11.2485 32.9292 11.2485 29.1483V16.5493C11.2485 12.8294 13.4073 10.6584 17.1151 10.6584H27.3369ZM17.4444 27.4164C17.0785 27.3798 16.7248 27.5505 16.5296 27.8676C16.3345 28.1726 16.3345 28.575 16.5296 28.8922C16.7248 29.1971 17.0785 29.38 17.4444 29.3312H27.0064C27.4931 29.2824 27.8602 28.8665 27.8602 28.3799C27.8602 27.8798 27.4931 27.4652 27.0064 27.4164H17.4444ZM27.0064 21.8536H17.4444C16.9187 21.8536 16.493 22.2817 16.493 22.8061C16.493 23.3306 16.9187 23.7574 17.4444 23.7574H27.0064C27.5309 23.7574 27.9577 23.3306 27.9577 22.8061C27.9577 22.2817 27.5309 21.8536 27.0064 21.8536ZM21.0899 16.3298H17.4444V16.342C16.9187 16.342 16.493 16.7688 16.493 17.2933C16.493 17.8177 16.9187 18.2446 17.4444 18.2446H21.0899C21.6156 18.2446 22.0424 17.8177 22.0424 17.2799C22.0424 16.7566 21.6156 16.3298 21.0899 16.3298Z" fill="#5D7285"/>
</svg>
