<svg width="45" height="45" viewBox="0 0 45 45" fill="none" xmlns="http://www.w3.org/2000/svg">
<path d="M23.0999 10.2881C24.0222 10.2881 24.8573 10.8004 25.3185 11.5566C25.5429 11.9225 25.6924 12.3737 25.655 12.8494C25.6301 13.2153 25.7423 13.5812 25.9417 13.9227C26.5774 14.9594 27.9859 15.3497 29.0827 14.7643C30.3167 14.0569 31.8747 14.4837 32.5852 15.6912L33.4203 17.1304C34.1432 18.3378 33.7444 19.8868 32.498 20.582C31.4385 21.204 31.0646 22.5822 31.7002 23.6311C31.8997 23.9604 32.124 24.2409 32.473 24.4117C32.9093 24.6434 33.2458 25.0093 33.4826 25.3752C33.9438 26.1314 33.9064 27.0583 33.4577 27.8755L32.5852 29.3391C32.124 30.1197 31.264 30.6075 30.379 30.6075C29.9428 30.6075 29.4567 30.4856 29.0578 30.2416C28.7337 30.0343 28.3598 29.9611 27.9609 29.9611C26.727 29.9611 25.6924 30.9734 25.655 32.1809C25.655 33.5835 24.5083 34.6811 23.0749 34.6811H21.3798C19.9339 34.6811 18.7872 33.5835 18.7872 32.1809C18.7623 30.9734 17.7278 29.9611 16.4938 29.9611C16.0825 29.9611 15.7085 30.0343 15.3969 30.2416C14.9981 30.4856 14.4995 30.6075 14.0757 30.6075C13.1783 30.6075 12.3182 30.1197 11.8571 29.3391L10.997 27.8755C10.5358 27.0827 10.5109 26.1314 10.9721 25.3752C11.1715 25.0093 11.5455 24.6434 11.9692 24.4117C12.3182 24.2409 12.5426 23.9604 12.7545 23.6311C13.3777 22.5822 13.0038 21.204 11.9443 20.582C10.7104 19.8868 10.3115 18.3378 11.022 17.1304L11.8571 15.6912C12.58 14.4837 14.1256 14.0569 15.372 14.7643C16.4564 15.3497 17.8649 14.9594 18.5005 13.9227C18.7 13.5812 18.8121 13.2153 18.7872 12.8494C18.7623 12.3737 18.8994 11.9225 19.1362 11.5566C19.5974 10.8004 20.4325 10.3125 21.3424 10.2881H23.0999ZM22.2398 19.0452C20.2829 19.0452 18.7 20.582 18.7 22.4968C18.7 24.4117 20.2829 25.9363 22.2398 25.9363C24.1967 25.9363 25.7423 24.4117 25.7423 22.4968C25.7423 20.582 24.1967 19.0452 22.2398 19.0452Z" fill="#5D7285"/>
</svg>
