<svg width="45" height="45" viewBox="0 0 45 45" fill="none" xmlns="http://www.w3.org/2000/svg">
<path d="M27.511 10.1152C31.6448 10.1152 34.4218 13.0156 34.4218 17.3315V27.2918C34.4218 31.6077 31.6448 34.5082 27.5098 34.5082H16.9396C12.8058 34.5082 10.0288 31.6077 10.0288 27.2918V17.3315C10.0288 13.0156 12.8058 10.1152 16.9396 10.1152H27.511ZM28.856 22.9825C27.5487 22.1669 26.5393 23.3123 26.267 23.6786C26.0045 24.0323 25.7789 24.4225 25.5409 24.8126C24.9596 25.7755 24.2936 26.8857 23.1408 27.5314C21.4655 28.459 20.1936 27.6044 19.2787 26.9826C18.9353 26.751 18.6017 26.532 18.2693 26.386C17.45 26.0323 16.713 26.4351 15.619 27.8246C15.045 28.5509 14.4759 29.2709 13.8995 29.9883C13.5548 30.4175 13.637 31.0796 14.1018 31.3665C14.8438 31.8234 15.749 32.0689 16.7718 32.0689H27.0507C27.6308 32.0689 28.2122 31.9896 28.7665 31.8083C30.015 31.4005 31.006 30.4666 31.5236 29.2331C31.9602 28.196 32.1724 26.9373 31.764 25.8901C31.6278 25.5427 31.4242 25.2192 31.1385 24.9347C30.3891 24.1909 29.6888 23.4961 28.856 22.9825ZM17.9551 14.9938C16.2737 14.9938 14.9074 16.3619 14.9074 18.0429C14.9074 19.7239 16.2737 21.092 17.9551 21.092C19.6354 21.092 21.0029 19.7239 21.0029 18.0429C21.0029 16.3619 19.6354 14.9938 17.9551 14.9938Z" fill="#5D7285"/>
</svg>
