<svg width="45" height="45" viewBox="0 0 45 45" fill="none" xmlns="http://www.w3.org/2000/svg">
<path d="M22.1631 26.0387C26.3479 26.0387 29.9212 26.7022 29.9212 29.3571C29.9212 32.0109 26.3708 32.6985 22.1631 32.6985C17.9782 32.6985 14.4049 32.035 14.4049 29.3812C14.4049 26.7263 17.9553 26.0387 22.1631 26.0387ZM28.8541 24.4401C30.454 24.4104 32.174 24.6301 32.8096 24.7861C34.1562 25.0508 35.0418 25.5912 35.4088 26.3766C35.7189 27.0214 35.7189 27.7694 35.4088 28.4131C34.8474 29.6312 33.0379 30.0223 32.3346 30.1233C32.1893 30.1453 32.0725 30.019 32.0878 29.8729C32.4471 26.4974 29.5891 24.897 28.8497 24.5291C28.8181 24.5126 28.8115 24.4873 28.8148 24.4719C28.817 24.461 28.8301 24.4434 28.8541 24.4401ZM15.2959 24.4378L15.5972 24.4405C15.6212 24.4438 15.6332 24.4614 15.6354 24.4713C15.6387 24.4878 15.6321 24.5119 15.6015 24.5295C14.8611 24.8975 12.0031 26.4979 12.3624 29.8722C12.3777 30.0194 12.262 30.1446 12.1167 30.1238C11.4134 30.0227 9.60384 29.6317 9.04251 28.4135C8.73127 27.7687 8.73127 27.0218 9.04251 26.377C9.40945 25.5917 10.294 25.0512 11.6406 24.7854C12.2772 24.6305 13.9962 24.4109 15.5972 24.4405L15.2959 24.4378ZM22.1631 13.1841C25.0123 13.1841 27.2969 15.4798 27.2969 18.3467C27.2969 21.2125 25.0123 23.5104 22.1631 23.5104C19.3138 23.5104 17.0292 21.2125 17.0292 18.3467C17.0292 15.4798 19.3138 13.1841 22.1631 13.1841ZM29.1326 14.045C31.8846 14.045 34.0459 16.6494 33.3098 19.5503C32.8129 21.5033 31.0142 22.8006 29.0103 22.7478C28.8093 22.7424 28.6117 22.7237 28.4206 22.6907C28.2819 22.6666 28.212 22.5095 28.2906 22.3931C29.0551 21.2617 29.4908 19.9007 29.4908 18.4398C29.4908 16.9152 29.0147 15.4939 28.1879 14.3284C28.1617 14.2922 28.1421 14.2362 28.1683 14.1944C28.1901 14.1604 28.2305 14.1428 28.2688 14.134C28.5472 14.0769 28.8334 14.045 29.1326 14.045ZM15.317 14.0449C15.6163 14.0449 15.9024 14.0768 16.182 14.1339C16.2191 14.1427 16.2606 14.1614 16.2824 14.1943C16.3076 14.236 16.289 14.2921 16.2628 14.3283C15.4361 15.4937 14.9599 16.9151 14.9599 18.4397C14.9599 19.9006 15.3957 21.2616 16.1601 22.3929C16.2388 22.5094 16.1689 22.6665 16.0302 22.6906C15.838 22.7247 15.6414 22.7422 15.4405 22.7477C13.4365 22.8005 11.6378 21.5032 11.1409 19.5502C10.4038 16.6493 12.565 14.0449 15.317 14.0449Z" fill="#5D7285"/>
</svg>
