<svg width="147" height="41" viewBox="0 0 147 41" fill="none" xmlns="http://www.w3.org/2000/svg">
<rect y="0.5" width="147" height="40" rx="5" fill="#151613"/>
<g clip-path="url(#clip0_474_1289)">
<path fill-rule="evenodd" clip-rule="evenodd" d="M54.0498 27.1481H48.6896L47.4024 31.0332H45.132L50.2091 16.6595H52.5679L57.645 31.0332H55.3359L54.0498 27.1481ZM49.2447 25.3554H53.4936L51.3991 19.0502H51.3404L49.2447 25.3554ZM68.6098 25.794C68.6098 29.0505 66.9045 31.1428 64.3311 31.1428C63.001 31.214 61.748 30.5018 61.1053 29.3094H61.0566V34.5H58.9521V20.5536H60.9892V22.2966H61.0279C61.6992 21.1116 62.9535 20.3998 64.2924 20.444C66.8945 20.444 68.6098 22.5464 68.6098 25.794ZM66.4467 25.794C66.4467 23.6723 65.374 22.2774 63.7373 22.2774C62.1293 22.2774 61.0478 23.7017 61.0478 25.794C61.0478 27.9055 62.1293 29.3196 63.7373 29.3196C65.374 29.3196 66.4467 27.9349 66.4467 25.794ZM79.8942 25.794C79.8942 29.0505 78.1889 31.1428 75.6155 31.1428C74.2854 31.214 73.0324 30.5018 72.3897 29.3094H72.341V34.5H70.2365V20.5536H72.2735V22.2966H72.3122C72.9835 21.1116 74.2378 20.3998 75.5768 20.444C78.1789 20.444 79.8942 22.5464 79.8942 25.794ZM77.7311 25.794C77.7311 23.6723 76.6584 22.2774 75.0217 22.2774C73.4137 22.2774 72.3322 23.7017 72.3322 25.794C72.3322 27.9055 73.4137 29.3196 75.0217 29.3196C76.6584 29.3196 77.7311 27.9349 77.7311 25.794ZM87.3522 27.0283C87.5081 28.4537 88.8628 29.3896 90.7141 29.3896C92.4879 29.3896 93.7641 28.4537 93.7641 27.1684C93.7641 26.0528 92.9944 25.3847 91.1719 24.9269L89.3494 24.4782C86.7672 23.8406 85.5684 22.6063 85.5684 20.6033C85.5684 18.1233 87.6829 16.4198 90.6853 16.4198C93.6568 16.4198 95.6938 18.1233 95.7624 20.6033H93.638C93.5108 19.1689 92.3507 18.303 90.6554 18.303C88.9601 18.303 87.8001 19.179 87.8001 20.4541C87.8001 21.4703 88.541 22.0682 90.3535 22.526L91.9029 22.9148C94.7881 23.6123 95.9869 24.7969 95.9869 26.8994C95.9869 29.5885 93.8912 31.2727 90.5581 31.2727C87.4395 31.2727 85.3339 29.6281 85.1979 27.0282L87.3522 27.0283ZM100.529 18.0736V20.5536H102.478V22.2571H100.529V28.0343C100.529 28.9318 100.919 29.3501 101.776 29.3501C102.008 29.346 102.239 29.3293 102.468 29.3003V30.9936C102.083 31.0672 101.692 31.1005 101.3 31.0931C99.2238 31.0931 98.4143 30.2962 98.4143 28.2638V22.2571H96.9236V20.5536H98.4143V18.0736H100.529ZM103.608 25.794C103.608 22.4967 105.507 20.4248 108.47 20.4248C111.443 20.4248 113.334 22.4967 113.334 25.794C113.334 29.1003 111.453 31.1632 108.47 31.1632C105.489 31.1632 103.608 29.1003 103.608 25.794ZM111.189 25.794C111.189 23.5321 110.175 22.1972 108.47 22.1972C106.765 22.1972 105.752 23.5423 105.752 25.794C105.752 28.0649 106.765 29.3897 108.47 29.3897C110.175 29.3897 111.189 28.0649 111.189 25.794ZM115.069 20.5536H117.076V22.3373H117.125C117.405 21.1891 118.434 20.3988 119.591 20.4439C119.834 20.4431 120.075 20.47 120.312 20.5242V22.5362C120.006 22.4406 119.686 22.3967 119.366 22.4063C118.748 22.3806 118.149 22.6326 117.727 23.0962C117.306 23.5597 117.103 24.1885 117.174 24.8173V31.0332H115.069V20.5536ZM130.015 27.9552C129.732 29.8576 127.919 31.1632 125.6 31.1632C122.618 31.1632 120.767 29.1206 120.767 25.8437C120.767 22.5566 122.628 20.4247 125.512 20.4247C128.348 20.4247 130.132 22.4164 130.132 25.5939V26.3309H122.891V26.4609C122.823 27.2411 123.087 28.0133 123.615 28.5813C124.142 29.1492 124.883 29.458 125.649 29.4292C126.67 29.527 127.633 28.9276 128.017 27.9552H130.015ZM122.901 24.8275H128.027C128.065 24.1264 127.815 23.4409 127.338 22.936C126.86 22.4311 126.199 22.1527 125.512 22.1678C124.82 22.1635 124.154 22.4421 123.664 22.9416C123.174 23.441 122.899 24.12 122.901 24.8275ZM48.981 5.8403C49.8744 5.77477 50.7495 6.12221 51.3654 6.78698C51.9813 7.45176 52.273 8.3638 52.1604 9.27208C52.1604 11.4785 50.9937 12.7469 48.981 12.7469H46.5403V5.8403H48.981ZM47.5898 11.7701H48.8638C49.5022 11.8091 50.1239 11.552 50.5562 11.0701C50.9885 10.5883 51.1854 9.93295 51.0921 9.28615C51.1786 8.64204 50.9789 7.99213 50.5477 7.51419C50.1165 7.03625 49.4989 6.78028 48.8638 6.81631H47.5898V11.7701ZM53.3459 10.1385C53.2585 9.20423 53.6967 8.3001 54.4769 7.80526C55.257 7.31041 56.2442 7.31041 57.0244 7.80526C57.8045 8.3001 58.2428 9.20423 58.1554 10.1385C58.2445 11.0737 57.8066 11.9796 57.0257 12.4755C56.2449 12.9714 55.2564 12.9714 54.4755 12.4755C53.6947 11.9796 53.2568 11.0737 53.3459 10.1385ZM57.1202 10.1385C57.1202 9.00867 56.6237 8.34797 55.7523 8.34797C54.8775 8.34797 54.3855 9.00867 54.3855 10.1385C54.3855 11.2773 54.8776 11.9329 55.7523 11.9329C56.6237 11.9329 57.1202 11.2728 57.1202 10.1385ZM64.5484 12.7468H63.5045L62.4506 8.90805H62.371L61.3215 12.7468H60.2875L58.8819 7.53466H59.9027L60.8161 11.5118H60.8913L61.9397 7.53466H62.9051L63.9535 11.5118H64.0331L64.9421 7.53466H65.9485L64.5484 12.7468ZM67.1307 7.53466H68.0994V8.36265H68.1746C68.4361 7.75303 69.0472 7.38012 69.6963 7.43405C70.1989 7.39543 70.6914 7.5925 71.0347 7.96962C71.3781 8.34675 71.5351 8.863 71.4613 9.37262V12.7467H70.4549V9.63092C70.4549 8.79333 70.0988 8.37678 69.3546 8.37678C69.0137 8.36055 68.6829 8.4973 68.4488 8.75118C68.2148 9.00506 68.1009 9.35074 68.137 9.6976V12.7468H67.1307V7.53466ZM73.0648 5.5H74.0712V12.7467H73.0648V5.5ZM75.4701 10.1385C75.3827 9.20417 75.8211 8.30002 76.6013 7.80516C77.3815 7.31031 78.3687 7.31031 79.1489 7.80516C79.9291 8.30002 80.3675 9.20417 80.2801 10.1385C80.3691 11.0737 79.9312 11.9796 79.1503 12.4755C78.3694 12.9714 77.3808 12.9714 76.5999 12.4755C75.819 11.9796 75.3811 11.0737 75.4701 10.1385ZM79.2444 10.1385C79.2444 9.00867 78.7479 8.34797 77.8765 8.34797C77.0017 8.34797 76.5097 9.00867 76.5097 10.1385C76.5097 11.2773 77.0018 11.9329 77.8765 11.9329C78.7479 11.9329 79.2444 11.2728 79.2444 10.1385ZM81.3395 11.2728C81.3395 10.3346 82.023 9.7937 83.2361 9.71683L84.6174 9.63545V9.18557C84.6174 8.63507 84.2613 8.32423 83.5734 8.32423C83.0116 8.32423 82.6224 8.53504 82.5107 8.90354H81.5364C81.6392 8.00829 82.4631 7.43407 83.6199 7.43407C84.8983 7.43407 85.6193 8.08458 85.6193 9.18557V12.7468H84.6505V12.0143H84.5709C84.2419 12.5492 83.6568 12.8618 83.0393 12.8326C82.6064 12.8787 82.1747 12.7354 81.8508 12.4382C81.527 12.141 81.3412 11.7176 81.3395 11.2728ZM84.6174 10.8274V10.3917L83.3721 10.473C82.6699 10.5211 82.3514 10.7652 82.3514 11.2247C82.3514 11.6938 82.7495 11.9668 83.297 11.9668C83.6211 12.0003 83.9446 11.898 84.1935 11.6832C84.4424 11.4684 84.5954 11.1596 84.6174 10.8274ZM86.9419 10.1385C86.9419 8.49152 87.7702 7.4482 89.0586 7.4482C89.7091 7.41756 90.3184 7.77386 90.6223 8.36261H90.6975V5.5H91.7038V12.7467H90.7395V11.9233H90.6599C90.3331 12.5071 89.7162 12.8574 89.0586 12.8326C87.7614 12.8327 86.9419 11.7894 86.9419 10.1385ZM87.9815 10.1385C87.9815 11.2439 88.4913 11.9092 89.3439 11.9092C90.1921 11.9092 90.7163 11.2344 90.7163 10.143C90.7163 9.0567 90.1866 8.37227 89.3439 8.37227C88.4968 8.37227 87.9815 9.042 87.9815 10.1385ZM95.8675 10.1385C95.78 9.20423 96.2183 8.3001 96.9985 7.80526C97.7786 7.31041 98.7658 7.31041 99.5459 7.80526C100.326 8.3001 100.764 9.20423 100.677 10.1385C100.766 11.0737 100.328 11.9796 99.5473 12.4755C98.7665 12.9714 97.7779 12.9714 96.9971 12.4755C96.2162 11.9796 95.7784 11.0737 95.8675 10.1385ZM99.6418 10.1385C99.6418 9.00867 99.1453 8.34797 98.2739 8.34797C97.3991 8.34797 96.907 9.00867 96.907 10.1385C96.907 11.2773 97.3991 11.9329 98.2739 11.9329C99.1453 11.9329 99.6418 11.2728 99.6418 10.1385ZM102.027 7.53466H102.996V8.36265H103.071C103.333 7.75303 103.944 7.38012 104.593 7.43405C105.095 7.39543 105.588 7.5925 105.931 7.96962C106.275 8.34675 106.432 8.863 106.358 9.37262V12.7467H105.352V9.63092C105.352 8.79333 104.995 8.37678 104.251 8.37678C103.91 8.36055 103.579 8.4973 103.345 8.75118C103.111 9.00506 102.997 9.35074 103.034 9.6976V12.7468H102.027V7.53466ZM112.044 6.23701V7.5584H113.149V8.42483H112.044V11.1049C112.044 11.6509 112.264 11.8899 112.765 11.8899C112.894 11.8895 113.022 11.8816 113.149 11.8662V12.723C112.968 12.7561 112.785 12.7736 112.602 12.7756C111.483 12.7756 111.037 12.3732 111.037 11.3683V8.42478H110.227V7.55835H111.037V6.23701H112.044ZM114.524 5.5H115.521V8.37225H115.601C115.875 7.7573 116.497 7.38392 117.156 7.43858C117.655 7.41078 118.141 7.61219 118.481 7.98795C118.821 8.36371 118.979 8.87467 118.912 9.38167V12.7468H117.905V9.63542C117.905 8.80291 117.525 8.38128 116.814 8.38128C116.464 8.35193 116.119 8.48203 115.872 8.7368C115.624 8.99157 115.499 9.34502 115.53 9.70267V12.7467H114.524L114.524 5.5ZM124.78 11.3395C124.498 12.3226 123.567 12.9578 122.57 12.8474C121.89 12.8657 121.237 12.5776 120.783 12.0596C120.33 11.5415 120.122 10.8458 120.215 10.1571C120.124 9.46648 120.331 8.76968 120.782 8.24724C121.233 7.7248 121.884 7.42812 122.566 7.43406C123.985 7.43406 124.841 8.42487 124.841 10.0616V10.4205H121.24V10.4781C121.208 10.8649 121.337 11.2475 121.596 11.5317C121.854 11.816 122.218 11.9756 122.598 11.9713C123.09 12.0317 123.569 11.7821 123.811 11.3394L124.78 11.3395ZM121.24 9.65974H123.815C123.841 9.30601 123.719 8.95766 123.48 8.70053C123.241 8.4434 122.907 8.3014 122.56 8.30953C122.209 8.30502 121.87 8.44584 121.621 8.70005C121.373 8.95427 121.235 9.30034 121.24 9.65974ZM34.1662 20.151C34.1688 22.5793 35.627 24.7707 37.8695 25.7167C37.4382 27.1139 36.7881 28.4344 35.9432 29.6292C34.8086 31.3218 33.619 32.9755 31.7309 33.0061C29.8962 33.0483 29.2797 31.9293 27.1754 31.9293C25.0514 31.9293 24.3942 32.9755 22.6346 33.0483C20.8365 33.1147 19.4622 31.2417 18.2864 29.5649C15.9362 26.1406 14.1061 19.9147 16.5596 15.6785C17.7117 13.6138 19.8658 12.3036 22.2339 12.2273C24.0337 12.1904 25.705 13.4395 26.8115 13.4395C27.8971 13.4395 29.9623 11.9452 32.0926 12.1682C34.1174 12.2314 35.9938 13.2431 37.1557 14.898C35.3222 16.0222 34.1939 18.0047 34.1662 20.151ZM30.7009 9.91618C29.7021 11.1551 28.1887 11.8687 26.5947 11.8524C26.4934 10.2989 27.0153 8.76906 28.0456 7.59967C29.089 6.41443 30.5419 5.66475 32.1147 5.5C32.2376 7.09945 31.7304 8.68365 30.7009 9.91618Z" fill="white"/>
</g>
<rect x="0.5" y="1" width="146" height="39" rx="7.5" stroke="#A6A89F"/>
<defs>
<clipPath id="clip0_474_1289">
<rect width="115" height="29" fill="white" transform="translate(15.1309 5.5)"/>
</clipPath>
</defs>
</svg>
