<svg width="147" height="41" viewBox="0 0 147 41" fill="none" xmlns="http://www.w3.org/2000/svg">
<rect y="0.5" width="147" height="40" rx="5" fill="#151613"/>
<g clip-path="url(#clip0_474_1296)">
<path fill-rule="evenodd" clip-rule="evenodd" d="M50.4913 8.36668C50.5298 9.21314 50.2266 10.0387 49.6526 10.6506C49.0112 11.331 48.1165 11.7006 47.1922 11.667C45.7746 11.6556 44.5017 10.7776 43.9621 9.43889C43.4226 8.10015 43.7215 6.56159 44.7207 5.53459C45.3699 4.85777 46.2647 4.48571 47.1922 4.50681C47.665 4.50521 48.1331 4.60236 48.5678 4.79231C48.9725 4.95898 49.3327 5.22118 49.619 5.55743L49.0263 6.16267C48.5738 5.61301 47.8944 5.31269 47.1922 5.35187C46.4864 5.34834 45.8096 5.63861 45.3179 6.15575C44.8263 6.67289 44.5621 7.37227 44.5865 8.0926C44.5715 9.18112 45.1993 10.172 46.1778 10.6041C47.1563 11.0362 48.2933 10.8248 49.0599 10.0682C49.404 9.68741 49.6025 9.1929 49.619 8.67501H47.1922V7.85279H50.4466C50.4764 8.02239 50.4914 8.19437 50.4913 8.36668ZM55.6134 5.51175H52.5938V7.68149H55.345V8.50371H52.5938V10.6735H55.6134V11.5185H51.6992V4.66669H55.6134V5.51175ZM59.2815 11.5185H58.4204V5.51175H56.5416V4.66669H61.2051V5.51175H59.2815V11.5185ZM64.493 11.5185V4.66669H65.3541V11.5185H64.493ZM69.1789 11.5185H68.3177V5.51175H66.4389V4.66669H71.0465V5.51175H69.1789V11.5185ZM79.7808 10.6278C78.4197 12.0098 76.2211 12.0098 74.8601 10.6278C73.5407 9.20173 73.5407 6.97206 74.8601 5.54601C75.5109 4.87652 76.3966 4.5 77.3204 4.5C78.2443 4.5 79.1299 4.87652 79.7808 5.54601C81.1057 6.96977 81.1057 9.20402 79.7808 10.6278ZM75.4975 10.0568C76.5055 11.0818 78.1353 11.0818 79.1433 10.0568C80.1333 8.94243 80.1333 7.24278 79.1433 6.12841C78.1353 5.10342 76.5055 5.10342 75.4975 6.12841C74.5076 7.24278 74.5076 8.94243 75.4975 10.0568ZM81.9839 11.5185V4.66669H83.0352L86.3007 9.9997V4.66669H87.1618V11.5185H86.2672L82.8562 5.93428V11.5185H81.9839ZM73.6634 21.5108C74.9334 21.4859 76.1588 21.9885 77.059 22.9034C77.9592 23.8184 78.4572 25.0673 78.4388 26.3641C78.4387 29.0416 76.3153 31.2133 73.6932 31.2175C71.0712 31.2216 68.9411 29.0568 68.9329 26.3793C68.9246 23.7018 71.0414 21.5234 73.6634 21.5108ZM73.6634 29.3104C74.4052 29.2929 75.1086 28.9701 75.614 28.4153C76.1194 27.8606 76.3838 27.1209 76.3475 26.3641C76.3446 25.1544 75.6178 24.0694 74.5147 23.6281C73.4116 23.1868 72.1565 23.4788 71.3495 24.3646C70.5426 25.2504 70.348 26.5498 70.8587 27.6414C71.3693 28.733 72.4816 29.3948 73.6634 29.3104ZM63.2517 21.5108H63.2405C64.5104 21.4859 65.7358 21.9885 66.636 22.9034C67.5363 23.8184 68.0342 25.0673 68.0158 26.3641C68.0158 29.0431 65.8901 31.2154 63.2666 31.2175C60.643 31.2196 58.514 29.0507 58.5099 26.3717C58.5058 23.6928 60.6281 21.5171 63.2517 21.5108ZM63.2517 29.3104H63.2405C63.9823 29.2929 64.6856 28.9701 65.191 28.4153C65.6964 27.8606 65.9609 27.1209 65.9245 26.3641C65.9213 25.1534 65.193 24.068 64.0886 23.6276C62.9841 23.1873 61.7282 23.4817 60.9225 24.3699C60.1167 25.2581 59.9251 26.5592 60.4394 27.6501C60.9537 28.741 62.0692 29.3996 63.2517 29.3104ZM50.8492 23.0068L57.6376 22.9497C57.7156 23.3751 57.753 23.8073 57.7494 24.2401C57.802 26.0167 57.1764 27.7447 56.0048 29.0592C54.6658 30.4909 52.7859 31.2612 50.8492 31.1718C48.1417 31.2794 45.5934 29.8658 44.2083 27.4878C42.8232 25.1098 42.8232 22.1485 44.2083 19.7705C45.5934 17.3924 48.1417 15.9788 50.8492 16.0864C52.7512 16.0696 54.5788 16.8399 55.9153 18.2219L54.495 19.6722C53.5151 18.7061 52.2 18.1764 50.838 18.1991C47.8733 18.1991 45.47 20.6532 45.47 23.6805C45.47 26.7078 47.8733 29.162 50.838 29.162C52.2321 29.2187 53.5847 28.6712 54.5621 27.6546C55.2106 26.944 55.6047 26.0305 55.6805 25.0623H50.8492V23.0068ZM101.521 24.6055L101.756 25.1194L95.3928 27.803C95.7917 28.7305 96.7053 29.3148 97.6966 29.2762C98.6538 29.2786 99.5416 28.7668 100.034 27.9286L101.656 29.0706C100.773 30.4198 99.2856 31.2263 97.6966 31.2175C96.4335 31.2364 95.2172 30.73 94.3271 29.8147C93.4371 28.8994 92.9498 27.6538 92.9772 26.3641C92.8999 25.104 93.3369 23.8674 94.1843 22.948C95.0318 22.0285 96.2141 21.5083 97.4506 21.5108C99.3047 21.5805 100.924 22.8117 101.521 24.6055ZM95.035 26.2271L99.2847 24.4228C98.9504 23.7498 98.2551 23.3454 97.5177 23.395C96.8181 23.4272 96.1607 23.7456 95.6937 24.2784C95.2266 24.8112 94.9892 25.5136 95.035 26.2271ZM89.8682 30.932V16.6574H91.9595V30.932H89.8682ZM86.4461 22.5956V21.7963H88.3696V30.441C88.3696 34.0268 86.3454 35.4999 83.8963 35.4999C82.0501 35.5112 80.3821 34.3771 79.6801 32.6336L81.503 31.857C81.8841 32.8746 82.8297 33.5559 83.8963 33.5814C85.462 33.5814 86.4349 32.5879 86.4349 30.7265V30.0299H86.3678C85.7393 30.7702 84.8221 31.1883 83.8627 31.1718C81.3242 31.0461 79.3293 28.9079 79.3293 26.3128C79.3293 23.7176 81.3242 21.5794 83.8627 21.4537C84.819 21.4524 85.7303 21.8678 86.3678 22.5956H86.4461ZM84.0528 29.3104H84.0417C84.7685 29.2819 85.4522 28.9509 85.9339 28.3943C86.4155 27.8378 86.6531 27.1042 86.5915 26.3641C86.6467 25.6275 86.4083 24.8993 85.9304 24.3446C85.4524 23.7899 84.7754 23.4557 84.0528 23.4179C82.5575 23.5524 81.4106 24.8313 81.4106 26.3641C81.4106 27.897 82.5575 29.1759 84.0528 29.3104ZM106.319 16.6574H111.329C112.953 16.5382 114.507 17.3557 115.355 18.7758C116.203 20.1959 116.203 21.9806 115.355 23.4007C114.507 24.8208 112.953 25.6383 111.329 25.5191H108.41V30.932H106.319V16.6574ZM111.318 23.5092L111.362 23.5435C112.687 23.5435 113.761 22.4468 113.761 21.0939C113.761 19.7411 112.687 18.6444 111.362 18.6444H108.399V23.5092H111.318ZM124.212 21.4537L124.268 21.4879C126.65 21.4879 128.507 22.9382 128.507 25.4391V30.932H126.494V29.7901H126.426C125.844 30.7136 124.815 31.2391 123.742 31.1604C122.872 31.2261 122.012 30.9295 121.359 30.338C120.706 29.7465 120.316 28.9104 120.276 28.02C120.276 25.953 122.3 24.8111 124.302 24.8111C125.062 24.8078 125.811 24.9961 126.482 25.3592V25.2108C126.429 24.6621 126.162 24.1584 125.742 23.8127C125.321 23.4669 124.782 23.3082 124.246 23.3722C123.464 23.3069 122.719 23.719 122.345 24.4228L120.488 23.6348C121.193 22.2155 122.656 21.3587 124.212 21.4537ZM123.955 29.2762L124.011 29.3104C125.271 29.2791 126.315 28.3048 126.46 27.0265C125.88 26.6958 125.223 26.5301 124.559 26.5469C123.508 26.5469 122.322 26.9237 122.322 28.0657C122.322 28.9222 123.273 29.2762 123.955 29.2762ZM135.843 21.7963H138.169L132.443 35.2601H130.262L132.387 30.4524L128.663 21.7963H130.9L133.383 27.9857H133.45L135.843 21.7963ZM117.044 30.932V16.6574H119.135V30.932H117.044ZM34.5564 19.056C34.8368 19.2182 35.0044 19.5085 35.0044 19.8325C35.0044 20.1564 34.8368 20.4467 34.5563 20.6085L29.4654 23.5469L25.8917 20.0923L29.802 16.3125L34.5564 19.056ZM28.995 15.8463L25.2474 19.4693L12.2966 6.95L23.763 12.8259L28.995 15.8463ZM12.4871 33.05L25.2474 20.7153L28.6585 24.013L23.7826 26.8278L12.4871 33.05ZM11.5317 7.45677L24.6029 20.0921L11.5195 32.7395L11.5317 7.45677Z" fill="white"/>
</g>
<rect x="0.5" y="1" width="146" height="39" rx="7.5" stroke="#A6A89F"/>
<defs>
<clipPath id="clip0_474_1296">
<rect width="127" height="31" fill="white" transform="translate(11.1699 4.5)"/>
</clipPath>
</defs>
</svg>
