<svg width="72" height="72" viewBox="0 0 72 72" fill="none" xmlns="http://www.w3.org/2000/svg">
<g clip-path="url(#clip0_474_634)">
<path d="M36 71C55.33 71 71 55.33 71 36C71 16.67 55.33 1 36 1C16.67 1 1 16.67 1 36C1 55.33 16.67 71 36 71Z" fill="#F3EBFF"/>
<mask id="mask0_474_634" style="mask-type:luminance" maskUnits="userSpaceOnUse" x="0" y="0" width="72" height="72">
<path d="M72 0H0V72H72V0Z" fill="white"/>
</mask>
<g mask="url(#mask0_474_634)">
<path d="M39.2965 31.0081C39.2965 31.0081 39.5394 33.5139 40.9422 35.1438L42.0174 38.9985L34.9832 42.7814L28.9102 39.5842L30.9599 35.0012C30.9599 35.0012 31.9484 33.5123 31.9484 30.7405C31.9484 30.7405 31.3612 29.9431 31.0433 28.8236C31.0433 28.8236 29.9227 27.2785 29.9758 23.6039L30.0823 19.929L32.5333 17.1049L36.5818 16.6797L40.6309 19.1826C42.1461 23.7292 42.4775 24.7321 39.2965 31.0081Z" fill="#FFD1D1"/>
<path d="M29.9791 23.6037C29.9791 23.6037 27.853 14.4586 36.085 14.0867C36.085 14.0867 42.9627 13.5672 41.7632 23.4835C41.7632 23.4835 40.8754 18.491 35.7467 18.491C35.7467 18.491 30.2993 17.9576 29.9791 23.6037Z" fill="#232323"/>
<path d="M44.9064 36.8541C44.9064 36.8541 48.3084 36.5478 50.8327 39.6432C50.8327 39.6432 55.0734 41.7116 53.927 47.615C54.7151 46.2038 55.2884 45.2604 56.6983 41.994C56.6983 41.994 56.8107 40.9558 57.83 40.7735C58.0846 40.4738 58.2437 39.9706 59.0514 39.8811C59.4258 39.4512 59.8555 39.0572 60.749 39.2561C61.4167 39.1506 62.2379 39.911 62.6918 40.6991C63.556 41.7484 64.3609 43.2148 63.0926 44.6124C63.0797 45.3262 62.614 45.7023 61.9501 45.8042C61.8439 46.4724 61.414 46.9561 60.6959 46.9411C60.4036 47.6151 60.1243 48.0845 59.1571 48.0307C57.9269 50.7202 53.824 68.9008 46.047 48.6945L40.8203 43.2574L44.9064 36.8541Z" fill="#FFD1D1"/>
<path d="M27.0051 37.0797C27.0051 37.0797 23.6927 36.5479 21.1682 39.6434C21.1682 39.6434 16.9277 41.7118 18.074 47.6152C17.2859 46.2039 16.7127 45.2605 15.3028 41.9942C15.3028 41.9942 15.1904 40.956 14.171 40.7737C13.9164 40.4739 13.7574 39.9707 12.9497 39.8812C12.5752 39.4513 12.1455 39.0573 11.252 39.2562C10.5843 39.1507 9.76313 39.9111 9.30918 40.6993C8.44502 41.7485 7.64015 43.215 8.90836 44.6125C8.92138 45.3263 9.38702 45.7024 10.0509 45.8043C10.1571 46.4725 10.587 46.9562 11.3052 46.9413C11.5975 47.6152 11.8767 48.0846 12.844 48.0308C14.0742 50.7204 18.1771 68.9009 25.954 48.6947L31.1807 43.2576L27.0051 37.0797Z" fill="#FFD1D1"/>
<path d="M27.0043 37.0786L31.0303 35.0373C31.0303 35.0373 36.6294 39.3964 40.6415 34.7754L44.9045 36.8531C44.9045 36.8531 41.204 43.9343 46.0452 48.6935C46.0452 48.6935 44.6235 59.5377 47.1271 68.3049C47.1271 68.3049 33.7686 71.8962 24.584 68.3049C24.584 68.3049 27.4544 55.8739 25.9531 48.6935C25.9531 48.6935 29.5096 41.0873 27.0043 37.0786Z" fill="#8A38FF"/>
<path d="M18.0749 47.6119C18.9939 48.6551 20.6159 50.622 20.9659 52.8178C21.1994 50.4545 18.5532 46.6135 17.936 46.375C17.8671 46.8478 18.1151 47.937 18.0749 47.6119Z" fill="#F2BDBD"/>
<path d="M53.9329 47.6119C53.014 48.6551 51.3919 50.622 51.0419 52.8178C50.8084 50.4545 53.4546 46.6135 54.0718 46.375C54.1407 46.8478 53.8928 47.937 53.9329 47.6119Z" fill="#F2BDBD"/>
<path fill-rule="evenodd" clip-rule="evenodd" d="M31.0313 35.0369C31.0313 35.0369 36.6304 39.3961 40.6425 34.7751L40.6628 34.7849C39.6989 33.4381 39.3934 31.7087 39.3186 31.173C38.6194 32.2837 37.2406 33.0394 35.6539 33.0394C34.0325 33.0394 32.6281 32.2503 31.9443 31.0996C31.8645 33.6402 30.9614 35.0005 30.9614 35.0005L30.9199 35.0934L31.0313 35.0369Z" fill="#F2BDBD"/>
<path fill-rule="evenodd" clip-rule="evenodd" d="M35.9997 37.8447C38.2133 37.8447 40.139 37.0205 41.128 35.8061C41.2838 35.6148 41.4164 35.4137 41.5231 35.2048L40.6623 34.7853L40.642 34.7754C36.6299 39.3964 31.0308 35.0373 31.0308 35.0373L30.9194 35.0938L30.3496 35.3989C31.1632 36.8731 34.3336 37.8447 35.9997 37.8447Z" fill="#151613"/>
<path fill-rule="evenodd" clip-rule="evenodd" d="M35.5918 44.9785L36.6566 47.9973L40.1231 47.0787L37.3147 49.8496L38.3923 52.8608L35.5918 51.5546L32.7913 54.3342L33.8688 50.756L31.0605 49.4626L34.5269 48.5575L35.5918 44.9785Z" fill="#F9FBF7"/>
<path fill-rule="evenodd" clip-rule="evenodd" d="M30.0445 51.7695L30.4079 52.7999L31.591 52.4864L30.6325 53.432L31.0002 54.4597L30.0445 54.0139L29.0887 54.9625L29.4565 53.7414L28.498 53.2999L29.681 52.991L30.0445 51.7695Z" fill="#F9FBF7"/>
<path fill-rule="evenodd" clip-rule="evenodd" d="M41.9546 46.6018L42.3181 47.6321L43.5011 47.3186L42.5427 48.2643L42.9105 49.2919L41.9546 48.8462L40.9989 49.7948L41.3667 48.5737L40.4082 48.1322L41.5913 47.8232L41.9546 46.6018Z" fill="#F9FBF7"/>
<path d="M34 29C34.6667 29.6667 36.4 30.6 38 29" stroke="black" stroke-width="0.5"/>
<path d="M38 24C38.5523 24 39 23.7761 39 23.5C39 23.2239 38.5523 23 38 23C37.4477 23 37 23.2239 37 23.5C37 23.7761 37.4477 24 38 24Z" fill="#232323"/>
<path d="M33 24C33.5523 24 34 23.7761 34 23.5C34 23.2239 33.5523 23 33 23C32.4477 23 32 23.2239 32 23.5C32 23.7761 32.4477 24 33 24Z" fill="#232323"/>
<path d="M35.5 23.5V26.5H36.5L35.5 23.5Z" fill="#232323"/>
</g>
</g>
<defs>
<clipPath id="clip0_474_634">
<rect width="72" height="72" fill="white"/>
</clipPath>
</defs>
</svg>
