<svg width="70" height="70" viewBox="0 0 70 70" fill="none" xmlns="http://www.w3.org/2000/svg">
<g clip-path="url(#clip0_474_670)">
<path d="M35 70C54.33 70 70 54.33 70 35C70 15.67 54.33 0 35 0C15.67 0 0 15.67 0 35C0 54.33 15.67 70 35 70Z" fill="#F3EBFF"/>
<path d="M45.7766 36.8828H24.2227V38.4453H45.7766V36.8828Z" fill="#8A38FF"/>
<path d="M46 32H24V37H46V32Z" fill="#8A38FF"/>
<path d="M24.9656 45.9691H18.3086V24.0293H24.9656V45.9691ZM19.8711 44.4066H23.4031V25.5918L24 45L19.8711 44.4066Z" fill="#8A38FF"/>
<path d="M11.5625 30.2969H10V39.7023H11.5625V30.2969Z" fill="#8A38FF"/>
<path d="M19.948 45.9691H13.291V24.0293H19.948V45.9691ZM14.8535 44.4066H18.3855V25.5918H14.8535V44.4066Z" fill="#8A38FF"/>
<path d="M51.6918 45.9691H45.0352V24.0293H51.6918V45.9691ZM46.5977 44.4066H50.1293L46.5 45L46.5977 25.5918V44.4066Z" fill="#8A38FF"/>
<path d="M60 30.2969H58.4375V39.7023H60V30.2969Z" fill="#8A38FF"/>
<path d="M56.7074 45.9691H50.0508V24.0293H56.7074V45.9691ZM51.6133 44.4066H55.1449V25.5918H51.6133V44.4066Z" fill="#8A38FF"/>
<path d="M34.8809 15.0137H33.3184V20.4215H34.8809V15.0137Z" fill="#8A38FF"/>
<path d="M29.8629 21.1137L28.0132 16.0312L26.5449 16.5656L28.3946 21.6481L29.8629 21.1137Z" fill="#8A38FF"/>
<path d="M30.302 49.0466L28.8339 48.5117L26.9824 53.594L28.4505 54.1288L30.302 49.0466Z" fill="#8A38FF"/>
<path d="M35.3516 49.5781H33.7891V54.9863H35.3516V49.5781Z" fill="#8A38FF"/>
<path d="M42.1252 53.4335L40.2774 48.3516L38.8086 48.8856L40.6564 53.9675L42.1252 53.4335Z" fill="#8A38FF"/>
<path d="M41.6842 16.4058L40.2164 15.8711L38.3652 20.9526L39.8329 21.4874L41.6842 16.4058Z" fill="#8A38FF"/>
</g>
<defs>
<clipPath id="clip0_474_670">
<rect width="70" height="70" fill="white"/>
</clipPath>
</defs>
</svg>
