<svg width="70" height="70" viewBox="0 0 70 70" fill="none" xmlns="http://www.w3.org/2000/svg">
<g clip-path="url(#clip0_474_700)">
<path d="M35 70C54.33 70 70 54.33 70 35C70 15.67 54.33 0 35 0C15.67 0 0 15.67 0 35C0 54.33 15.67 70 35 70Z" fill="#F3EBFF"/>
<mask id="mask0_474_700" style="mask-type:luminance" maskUnits="userSpaceOnUse" x="7" y="7" width="56" height="56">
<path d="M63 7H7V63H63V7Z" fill="white"/>
</mask>
<g mask="url(#mask0_474_700)">
<path d="M33.0277 32.6254C32.8956 32.1611 32.412 31.8917 31.9477 32.0238C31.4833 32.156 31.214 32.6395 31.3461 33.1039L33.0673 39.128C33.1994 39.5923 33.683 39.8617 34.1473 39.7295C34.6117 39.5974 34.881 39.1138 34.7489 38.6495L33.0277 32.6254Z" fill="#BA721C"/>
<path d="M38.9032 33.1039C39.0354 32.6395 38.766 32.1559 38.3017 32.0238C37.8373 31.8917 37.3537 32.1611 37.2216 32.6254L35.5004 38.6495C35.3683 39.1138 35.6376 39.5974 36.102 39.7295C36.5663 39.8617 37.0499 39.5923 37.182 39.128L38.9032 33.1039Z" fill="#BA721C"/>
<path d="M31.1268 38.3867H38.872C39.3552 38.3867 39.747 38.7785 39.747 39.2618V41.3416H43.0003C43.4688 41.3416 43.8513 41.7099 43.8742 42.1727L45.5859 55.0102C45.6497 55.4892 45.3161 55.9289 44.8371 55.9928C44.7959 55.9983 44.7551 56.0007 44.7147 56.0004H25.2774C24.7941 56.0004 24.4023 55.6087 24.4023 55.1254C24.4023 55.061 24.4094 54.9982 24.4226 54.9376L26.1312 42.101C26.1902 41.6582 26.5707 41.3372 27.0062 41.3416H30.2518V39.2617C30.2518 38.7785 30.6435 38.3867 31.1268 38.3867Z" fill="#8A38FF"/>
<path d="M22.5215 54.25C22.0383 54.25 21.6465 54.6418 21.6465 55.125C21.6465 55.6083 22.0383 56 22.5215 56H47.4785C47.9617 56 48.3535 55.6083 48.3535 55.125C48.3535 54.6418 47.9617 54.25 47.4785 54.25H22.5215Z" fill="#151613"/>
<path d="M35.8513 14.6739L38.1157 21.6889L45.5563 21.6746C46.0396 21.6737 46.4321 22.0613 46.433 22.5445C46.4336 22.854 46.2734 23.1263 46.0312 23.2823L40.0426 27.6157L42.3552 34.6869C42.5054 35.1462 42.2564 35.6398 41.7971 35.7901C41.4906 35.8903 41.1686 35.812 40.9437 35.6124L34.9996 31.2763L28.9874 35.6621C28.597 35.9468 28.052 35.8645 27.7672 35.4741C27.5835 35.2223 27.554 34.9052 27.6609 34.6353L29.9566 27.6157L23.929 23.2541C23.5375 22.9708 23.449 22.4247 23.7323 22.0332C23.92 21.7738 24.2235 21.6479 24.5208 21.6748L31.8835 21.6889L34.1669 14.6062C34.3153 14.1463 34.8085 13.8939 35.2684 14.0423C35.5705 14.1398 35.7831 14.386 35.8513 14.6739Z" fill="#EC9630"/>
<path fill-rule="evenodd" clip-rule="evenodd" d="M35 17.7285L33.1585 23.4406L27.1582 23.429L32.018 26.9456L30.154 32.6451L35.0009 29.1094L39.8478 32.6451L37.9837 26.9456L42.8435 23.429L36.8437 23.4406L35 17.7285Z" fill="#FFB156"/>
<path fill-rule="evenodd" clip-rule="evenodd" d="M35.0009 23.4297L34.4321 25.1942L32.5762 25.1906L34.0781 26.2774L33.5025 28.0375L35.0009 26.9444L36.4992 28.0375L35.9235 26.2774L37.4255 25.1906L35.5705 25.1942L35.0009 23.4297Z" fill="#FFCA8B"/>
<path d="M30.2676 46.9922C29.7844 46.9922 29.3926 47.384 29.3926 47.8672C29.3926 48.3504 29.7844 48.7422 30.2676 48.7422H39.734C40.2173 48.7422 40.609 48.3504 40.609 47.8672C40.609 47.384 40.2173 46.9922 39.734 46.9922H30.2676Z" fill="#F9FBF7"/>
<path d="M31.6055 49.584C31.1222 49.584 30.7305 49.9758 30.7305 50.459C30.7305 50.9422 31.1222 51.334 31.6055 51.334H38.396C38.8793 51.334 39.2711 50.9422 39.2711 50.459C39.2711 49.9758 38.8793 49.584 38.396 49.584H31.6055Z" fill="#F9FBF7"/>
<path fill-rule="evenodd" clip-rule="evenodd" d="M34.6733 38.3867H32.855H31.127C30.6437 38.3867 30.252 38.7785 30.252 39.2617V41.3239H39.7472V39.2617C39.7472 38.7785 39.3555 38.3867 38.8722 38.3867H37.3937H35.5753H34.6733Z" fill="#8A38FF"/>
</g>
</g>
<defs>
<clipPath id="clip0_474_700">
<rect width="70" height="70" fill="white"/>
</clipPath>
</defs>
</svg>
