<svg width="32" height="32" viewBox="0 0 32 32" fill="none" xmlns="http://www.w3.org/2000/svg">
<rect width="32" height="32" rx="8" fill="#151613"/>
<rect x="0.5" y="0.5" width="31" height="31" rx="7.5" stroke="white" stroke-opacity="0.2"/>
<path d="M17.3915 9.2289V9.22656H18.0584L18.3021 9.27105C18.4645 9.29992 18.612 9.33777 18.7445 9.38459C18.877 9.43142 19.0053 9.48605 19.1292 9.54848C19.2532 9.61091 19.3656 9.67452 19.4665 9.73929C19.5665 9.80328 19.6563 9.87118 19.7359 9.94298C19.8145 10.0156 19.9372 10.0343 20.1039 9.99916C20.2706 9.96404 20.4502 9.91527 20.6425 9.85284C20.8349 9.79041 21.0251 9.72017 21.2132 9.64213C21.4013 9.56408 21.5159 9.51453 21.5569 9.49346C21.5971 9.47162 21.6185 9.45991 21.621 9.45834L21.6236 9.45483L21.6364 9.44898L21.6492 9.44313L21.662 9.43727L21.6749 9.43142L21.6775 9.42791L21.6813 9.42557L21.6851 9.42322L21.6877 9.41971L21.7005 9.4162L21.7134 9.41386L21.7108 9.43142L21.7069 9.44898L21.7005 9.46654L21.6941 9.4841L21.6877 9.4958L21.6813 9.50751L21.6749 9.52507C21.6706 9.53677 21.6664 9.55238 21.662 9.57189C21.6577 9.59141 21.6171 9.66944 21.5402 9.80601C21.4632 9.94259 21.3671 10.0811 21.2517 10.2216C21.1362 10.3621 21.0328 10.4682 20.9413 10.54C20.849 10.6126 20.7879 10.6633 20.7579 10.6922C20.728 10.7218 20.6917 10.7491 20.6489 10.7741L20.5848 10.8127L20.572 10.8186L20.5592 10.8244L20.5566 10.828L20.5528 10.8303L20.5488 10.8326L20.5464 10.8361L20.5335 10.842L20.5207 10.8479L20.5181 10.8514L20.5143 10.8537L20.5104 10.856L20.5079 10.8596L20.5053 10.8631L20.5015 10.8654L20.4976 10.8678L20.495 10.8713H20.5592L20.9183 10.801C21.1576 10.7542 21.3864 10.6976 21.6043 10.6313L21.9506 10.5259L21.989 10.5142L22.0083 10.5084L22.0211 10.5025L22.0339 10.4967L22.0468 10.4908L22.0596 10.485L22.0852 10.4815L22.1109 10.4791V10.5025L22.1045 10.5049L22.0981 10.5084L22.0955 10.5119L22.0917 10.5142L22.0878 10.5166L22.0852 10.5201L22.0827 10.5236L22.0788 10.5259L22.075 10.5283L22.0724 10.5318L22.0698 10.5353L22.066 10.5376L22.0596 10.5494L22.0532 10.5611L22.0493 10.5634C22.0476 10.5657 21.9934 10.6321 21.8864 10.7624C21.7796 10.8935 21.7219 10.9598 21.7134 10.9614C21.7048 10.9637 21.6928 10.9755 21.6775 10.9965C21.6629 11.0184 21.5722 11.1054 21.4056 11.2576C21.2388 11.4097 21.0755 11.5451 20.9157 11.6638C20.755 11.7832 20.6737 11.9299 20.672 12.1039C20.6695 12.2772 20.6596 12.4731 20.6425 12.6916C20.6254 12.9101 20.5934 13.1461 20.5464 13.3998C20.4993 13.6534 20.4266 13.9402 20.3283 14.2602C20.23 14.5801 20.1103 14.8923 19.9692 15.1967C19.8281 15.501 19.6807 15.7742 19.5268 16.0161C19.3729 16.258 19.2318 16.4629 19.1036 16.6307C18.9753 16.7984 18.8449 16.9565 18.7124 17.1048C18.58 17.2531 18.4123 17.42 18.2097 17.6058C18.0063 17.7907 17.8951 17.8922 17.8763 17.9101C17.8567 17.9273 17.7729 17.9913 17.6249 18.1021C17.4779 18.2137 17.3197 18.3253 17.1504 18.4369C16.982 18.5477 16.8272 18.6402 16.6862 18.7144C16.5451 18.7885 16.375 18.8731 16.1758 18.9683C15.9774 19.0644 15.7628 19.1533 15.532 19.2352C15.3012 19.3172 15.0575 19.3933 14.801 19.4636C14.5445 19.5338 14.2966 19.5884 14.0572 19.6274C13.8178 19.6664 13.5464 19.6996 13.2428 19.7269L12.7876 19.7679V19.7738H11.954V19.7679L11.845 19.762C11.7723 19.7582 11.7125 19.7542 11.6654 19.7503C11.6184 19.7464 11.441 19.7249 11.1332 19.6859C10.8255 19.6469 10.5839 19.6079 10.4087 19.5689C10.2334 19.5299 9.97263 19.4557 9.62637 19.3465C9.28011 19.2372 8.98387 19.1268 8.73765 19.0152C8.49228 18.9044 8.33838 18.8341 8.27597 18.8045C8.21441 18.7756 8.14516 18.7397 8.06821 18.6968L7.95279 18.6324L7.95024 18.6289L7.94638 18.6265L7.94253 18.6242L7.93997 18.6207L7.92714 18.6148L7.91432 18.609L7.91177 18.6055L7.90791 18.6031L7.90406 18.6008L7.9015 18.5973L7.89894 18.5938L7.89508 18.5914H7.88867V18.568L7.9015 18.5704L7.91432 18.5739L7.97203 18.5797C8.0105 18.5836 8.11524 18.5895 8.28623 18.5973C8.45723 18.6051 8.6389 18.6051 8.83126 18.5973C9.02363 18.5895 9.22028 18.5719 9.42119 18.5446C9.6221 18.5173 9.85936 18.4704 10.1329 18.4041C10.4065 18.3378 10.6579 18.2589 10.887 18.1677C11.1153 18.0756 11.2777 18.0069 11.3744 17.9617C11.4701 17.9171 11.6163 17.8344 11.8129 17.7134L12.1079 17.532L12.1104 17.5285L12.1143 17.5262L12.1182 17.5238L12.1207 17.5203L12.1233 17.5168L12.1271 17.5145L12.131 17.5121L12.1335 17.5086L12.1464 17.5051L12.1592 17.5028L12.1617 17.4911L12.1656 17.4794L12.1695 17.477L12.172 17.4735L12.0694 17.4677C12.001 17.4638 11.9348 17.4599 11.8706 17.456C11.8065 17.4521 11.7061 17.4345 11.5693 17.4032C11.4325 17.372 11.285 17.3252 11.1268 17.2628C10.9687 17.2003 10.8148 17.1262 10.6651 17.0404C10.5155 16.9546 10.4074 16.8831 10.3407 16.8261C10.2749 16.7699 10.1894 16.6904 10.0842 16.5873C9.9799 16.4836 9.88928 16.377 9.81233 16.2678C9.73538 16.1585 9.66185 16.0325 9.59176 15.8897L9.4853 15.6766L9.47889 15.6591L9.47249 15.6415L9.46864 15.6298L9.46607 15.6181L9.4853 15.6204L9.50454 15.6239L9.64561 15.6415C9.73967 15.6532 9.88714 15.6571 10.088 15.6532C10.289 15.6493 10.4279 15.6415 10.5048 15.6298C10.5818 15.6181 10.6288 15.6103 10.6459 15.6064L10.6716 15.6005L10.7036 15.5947L10.7357 15.5888L10.7382 15.5853L10.7421 15.583L10.746 15.5806L10.7485 15.5771L10.7229 15.5713L10.6972 15.5654L10.6716 15.5596L10.6459 15.5537L10.6203 15.5478C10.6032 15.5439 10.5732 15.5361 10.5305 15.5244C10.4877 15.5127 10.3723 15.4698 10.1842 15.3957C9.99615 15.3215 9.84653 15.2493 9.73538 15.1791C9.62396 15.1087 9.51771 15.0316 9.41734 14.9485C9.3173 14.8642 9.20745 14.7557 9.08775 14.6231C8.96806 14.4904 8.8612 14.3363 8.76714 14.1607C8.6731 13.9851 8.60257 13.8173 8.55554 13.6573C8.5087 13.4983 8.4778 13.3357 8.46322 13.1715L8.44012 12.9257L8.45294 12.928L8.46577 12.9315L8.47859 12.9374L8.49142 12.9432L8.50424 12.9491L8.51707 12.9549L8.71584 13.0369C8.84837 13.0915 9.01295 13.1383 9.20958 13.1774C9.40623 13.2164 9.52378 13.2378 9.56225 13.2417L9.61996 13.2476H9.73538L9.73283 13.2441L9.72897 13.2417L9.72513 13.2394L9.72256 13.2359L9.72001 13.2324L9.71615 13.23L9.7123 13.2277L9.70973 13.2242L9.69691 13.2183L9.68409 13.2125L9.68153 13.209L9.67767 13.2066L9.67383 13.2043L9.67126 13.2008L9.65843 13.1949L9.64561 13.1891L9.64305 13.1856C9.64049 13.184 9.60373 13.159 9.53275 13.1106C9.46265 13.0615 9.38913 12.9979 9.31217 12.9198C9.23523 12.8418 9.15828 12.7598 9.08134 12.674C9.00425 12.588 8.93559 12.4959 8.87615 12.3989C8.81631 12.3014 8.75303 12.1773 8.68635 12.0267C8.62052 11.8768 8.5705 11.7258 8.5363 11.5736C8.50211 11.4214 8.48288 11.2712 8.47859 11.1229C8.47432 10.9747 8.47859 10.8479 8.49142 10.7425C8.50424 10.6371 8.52989 10.5181 8.56836 10.3855C8.60684 10.2528 8.66242 10.1123 8.73508 9.96404L8.84409 9.74163L8.8505 9.72407L8.85691 9.70651L8.86077 9.70417L8.86332 9.70066L8.86589 9.69715L8.86974 9.69481L8.8736 9.69715L8.87615 9.70066L8.87872 9.70417L8.88256 9.70651L8.88642 9.70885L8.88897 9.71236L8.89153 9.71587L8.89538 9.71822L8.9018 9.72992L8.90821 9.74163L8.91207 9.74397L8.91462 9.74748L9.08775 9.92308C9.20317 10.0401 9.33997 10.1709 9.49813 10.3152C9.65631 10.4596 9.74393 10.5345 9.76103 10.54C9.77814 10.5462 9.7995 10.5642 9.82515 10.5938C9.8508 10.6227 9.9363 10.6918 10.0816 10.801C10.227 10.9103 10.4172 11.0371 10.6523 11.1815C10.8874 11.3259 11.1482 11.4683 11.4346 11.6087C11.721 11.7492 12.0288 11.876 12.358 11.9892C12.6871 12.1024 12.918 12.1765 13.0505 12.2116C13.183 12.2467 13.4096 12.2916 13.7302 12.3462C14.0508 12.4009 14.2923 12.436 14.4548 12.4516C14.6172 12.4672 14.7283 12.4762 14.7882 12.4785L14.878 12.4809L14.8754 12.4633L14.8715 12.4457L14.8459 12.2994C14.8288 12.2019 14.8202 12.0653 14.8202 11.8897C14.8202 11.7141 14.8352 11.5522 14.8651 11.4039C14.8951 11.2556 14.9399 11.1054 14.9998 10.9532C15.0596 10.801 15.1182 10.6789 15.1755 10.5868C15.2336 10.4955 15.3097 10.3913 15.4037 10.2743C15.4978 10.1572 15.6196 10.0362 15.7692 9.91137C15.9189 9.7865 16.0899 9.67529 16.2822 9.57775C16.4746 9.4802 16.652 9.40605 16.8145 9.35533C16.9768 9.30461 17.1136 9.27143 17.2248 9.25583C17.336 9.24022 17.3915 9.23124 17.3915 9.2289Z" fill="#F9FBF7"/>
</svg>
