<svg width="32" height="32" viewBox="0 0 32 32" fill="none" xmlns="http://www.w3.org/2000/svg">
<g clip-path="url(#clip0_474_1182)">
<path d="M24 0H8C3.58172 0 0 3.58172 0 8V24C0 28.4183 3.58172 32 8 32H24C28.4183 32 32 28.4183 32 24V8C32 3.58172 28.4183 0 24 0Z" fill="#151613"/>
<path d="M24 0.25H8C3.71979 0.25 0.25 3.71979 0.25 8V24C0.25 28.2802 3.71979 31.75 8 31.75H24C28.2802 31.75 31.75 28.2802 31.75 24V8C31.75 3.71979 28.2802 0.25 24 0.25Z" stroke="white" stroke-opacity="0.2" stroke-width="0.5"/>
<path d="M16.3911 22.2044L12.7803 22.1369C11.6112 22.1134 10.4391 22.1603 9.29294 21.9167C7.54933 21.5527 7.4258 19.7679 7.29655 18.2708C7.11845 16.166 7.1874 14.0231 7.52349 11.9359C7.71323 10.7648 8.45993 10.066 9.61467 9.98991C13.5128 9.71393 17.4368 9.74664 21.3262 9.87539C21.737 9.88719 22.1506 9.95171 22.5557 10.0251C24.555 10.3833 24.6038 12.4059 24.7334 14.1085C24.8627 15.8287 24.8081 17.5577 24.561 19.2662C24.3628 20.6808 23.9836 21.867 22.3833 21.9816C20.3782 22.1313 18.4191 22.2519 16.4083 22.2135C16.4084 22.2044 16.3968 22.2044 16.3911 22.2044ZM14.2683 18.6231C15.7793 17.7365 17.2615 16.8647 18.7639 15.984C17.25 15.0974 15.7707 14.2256 14.2683 13.345V18.6231Z" fill="#F9FBF7"/>
</g>
<defs>
<clipPath id="clip0_474_1182">
<rect width="32" height="32" fill="white"/>
</clipPath>
</defs>
</svg>
