<svg width="73" height="74" viewBox="0 0 73 74" fill="none" xmlns="http://www.w3.org/2000/svg">
<path fill-rule="evenodd" clip-rule="evenodd" d="M0.737189 6.86685C0.557603 7.54454 0.461914 8.25638 0.461914 8.99057V29.6296C0.461914 30.4513 0.581779 31.245 0.804977 31.9942C0.621101 33.5555 1.43664 35.1583 3.25159 36.3525C6.54757 38.5211 11.8914 38.5211 15.1874 36.3525L34.2389 23.8173C34.5194 23.6749 34.7893 23.5192 35.0464 23.35C38.283 21.2204 38.283 17.7677 35.0464 15.6382L14.821 2.33049C13.2665 1.30769 11.2481 0.776124 9.21142 0.735803C9.05225 0.726673 8.89188 0.722046 8.73043 0.722046C8.26064 0.722046 7.80001 0.761225 7.35161 0.836493C5.79388 1.03834 4.30723 1.53634 3.10024 2.33049C1.21838 3.56869 0.430698 5.25419 0.737189 6.86685Z" fill="#6820B7"/>
<path fill-rule="evenodd" clip-rule="evenodd" d="M40.8199 1.41289C37.9568 -0.470961 33.3147 -0.470966 30.4516 1.41289C27.5884 3.29674 27.5884 6.35107 30.4516 8.23492L38.4675 13.5091L38.3593 13.507C38.3593 13.507 44.687 17.1541 44.704 19.5397C44.7127 20.7667 43.0063 22.3479 41.324 23.6075L30.7717 30.5505C27.9447 32.4106 27.9447 35.4263 30.7717 37.2863C33.5986 39.1464 38.1821 39.1464 41.009 37.2863L62.6329 23.0586C63.4921 22.4932 64.0902 21.8211 64.4271 21.1071C65.4979 19.3658 64.9603 17.2964 62.8144 15.8845L40.8199 1.41289Z" fill="#00AF84"/>
<path fill-rule="evenodd" clip-rule="evenodd" d="M9.41972 41.7097C4.47259 41.7097 0.462158 45.7202 0.462158 50.6673V54.6951C0.462158 54.9805 0.475507 55.2628 0.501616 55.5414C0.475507 55.9729 0.462158 56.4101 0.462158 56.8521C0.462158 64.514 4.47259 70.7251 9.41972 70.7251C14.3668 70.7251 18.3773 64.514 18.3773 56.8521C18.3773 56.4101 18.3639 55.9729 18.3378 55.5414C18.3639 55.2628 18.3773 54.9805 18.3773 54.6951V50.6673C18.3773 45.7202 14.3668 41.7097 9.41972 41.7097Z" fill="#FF6F61"/>
<path fill-rule="evenodd" clip-rule="evenodd" d="M25.7637 43.0083C22.4453 45.1917 22.4453 48.7318 25.7637 50.9152L39.8235 60.166C39.9317 60.2372 40.042 60.306 40.1544 60.3726C40.4981 60.6061 40.847 60.8395 41.2009 61.0724C52.0521 68.2121 63.5538 72.2201 66.8907 70.0246C70.2276 67.829 64.136 60.2613 53.2848 53.1216C52.2892 52.4665 51.2881 51.8378 50.2884 51.2379L37.7809 43.0083C34.4624 40.8249 29.0822 40.8249 25.7637 43.0083Z" fill="#FFDA54"/>
</svg>
