<svg width="795" height="480" viewBox="0 0 795 480" fill="none" xmlns="http://www.w3.org/2000/svg">
<rect width="795" height="480" fill="white"/>
<path fill-rule="evenodd" clip-rule="evenodd" d="M20.6015 140.444C20.208 142.145 20 143.918 20 145.738V219.517C20 221.789 20.324 223.986 20.9283 226.064C21.2118 230.369 23.5335 234.612 27.8934 237.9C37.2196 244.933 52.3403 244.933 61.6665 237.9L115.575 197.245C116.368 196.783 117.131 196.278 117.858 195.73C127.017 188.823 127.017 177.625 117.858 170.718L60.6292 127.558C56.2708 124.272 50.6237 122.549 44.9145 122.391C44.4126 122.358 43.9063 122.342 43.3963 122.342C41.4792 122.342 39.616 122.573 37.8328 123.008C34.0352 123.792 30.4481 125.309 27.4647 127.558C22.7575 131.108 20.4698 135.792 20.6015 140.444Z" fill="#6820B7"/>
<path fill-rule="evenodd" clip-rule="evenodd" d="M134.196 124.582C126.094 118.473 112.959 118.473 104.858 124.582C96.7564 130.692 96.7564 140.598 104.858 146.708L127.54 163.814L127.233 163.807C127.233 163.807 145.138 175.635 145.186 183.372C145.21 187.351 140.383 192.479 135.624 196.564L105.763 219.083C97.7644 225.115 97.7644 234.896 105.763 240.929C113.763 246.961 126.732 246.961 134.731 240.929L195.917 194.785C198.348 192.951 200.04 190.772 200.993 188.457C204.024 182.809 202.503 176.097 196.43 171.517L134.196 124.582Z" fill="#00AF84"/>
<path fill-rule="evenodd" clip-rule="evenodd" d="M45.346 255.275C31.3478 255.275 20 266.623 20 280.621V301.095C20 301.493 20.0092 301.888 20.0272 302.281C20.0091 302.978 20 303.68 20 304.385C20 329.235 31.3478 349.379 45.346 349.379C59.3442 349.379 70.692 329.235 70.692 304.385C70.692 303.68 70.6828 302.979 70.6647 302.281C70.6828 301.888 70.692 301.493 70.692 301.095V280.621C70.692 266.623 59.3442 255.275 45.346 255.275Z" fill="#FF6F61"/>
<path fill-rule="evenodd" clip-rule="evenodd" d="M91.593 259.487C82.2032 266.569 82.2032 278.05 91.5929 285.131L131.376 315.134C131.683 315.366 131.997 315.59 132.317 315.807C133.288 316.563 134.273 317.319 135.273 318.073C165.978 341.229 198.522 354.228 207.964 347.107C217.406 339.986 200.17 315.442 169.466 292.287C166.646 290.16 163.811 288.12 160.98 286.173L125.596 259.487C116.206 252.406 100.983 252.406 91.593 259.487Z" fill="#FFDA54"/>
<path d="M232.996 200.844C233.764 200.844 235.3 200.844 237.604 200.844C239.908 200.759 242.468 200.716 245.284 200.716C248.1 200.716 250.831 200.716 253.476 200.716C256.122 200.631 258.17 200.588 259.62 200.588C270.543 200.588 278.735 202.679 284.196 206.86C289.658 211.041 292.388 217.228 292.388 225.42C292.388 230.881 291.066 235.404 288.42 238.988C285.775 242.487 282.191 245.217 277.668 247.18C280.228 248.631 282.49 250.551 284.452 252.94C286.415 255.329 288.292 258.231 290.084 261.644C291.876 264.972 293.668 268.812 295.46 273.164C297.338 277.516 299.386 282.295 301.604 287.5H278.948C276.218 281.527 273.914 276.279 272.036 271.756C270.159 267.148 268.41 263.308 266.788 260.236C265.167 257.079 263.546 254.732 261.924 253.196C260.388 251.575 258.511 250.764 256.292 250.764H254.116V287.5H232.996V200.844ZM254.116 237.58H259.492C262.479 237.58 264.996 236.684 267.044 234.892C269.178 233.015 270.244 230.113 270.244 226.188C270.244 224.567 270.031 223.073 269.604 221.708C269.263 220.257 268.666 219.02 267.812 217.996C266.959 216.887 265.764 216.033 264.228 215.436C262.778 214.753 260.986 214.412 258.852 214.412H254.116V237.58ZM302.641 257.164C302.641 251.447 303.452 246.412 305.073 242.06C306.78 237.623 309.084 233.953 311.985 231.052C314.972 228.065 318.428 225.804 322.353 224.268C326.279 222.732 330.545 221.964 335.153 221.964C339.164 221.964 342.577 222.476 345.393 223.5C348.209 224.439 350.513 225.804 352.305 227.596C354.097 229.303 355.42 231.351 356.273 233.74C357.127 236.044 357.553 238.561 357.553 241.292C357.553 244.364 356.785 247.265 355.249 249.996C353.713 252.727 351.495 255.159 348.593 257.292C345.777 259.34 342.321 261.047 338.225 262.412C334.215 263.777 329.649 264.673 324.529 265.1C325.127 267.66 326.193 269.751 327.729 271.372C329.351 272.908 331.783 273.676 335.025 273.676C336.903 273.676 338.908 273.463 341.041 273.036C343.175 272.609 345.137 272.14 346.929 271.628C349.063 271.031 351.153 270.348 353.201 269.58L357.041 282.892C354.737 284.001 352.22 284.983 349.489 285.836C347.185 286.519 344.497 287.159 341.425 287.756C338.439 288.353 335.239 288.652 331.825 288.652C326.62 288.652 322.14 287.884 318.385 286.348C314.716 284.812 311.687 282.679 309.297 279.948C306.993 277.217 305.287 273.932 304.177 270.092C303.153 266.167 302.641 261.857 302.641 257.164ZM332.593 236.428C330.972 236.428 329.564 236.897 328.369 237.836C327.26 238.775 326.364 240.012 325.681 241.548C324.999 243.084 324.487 244.791 324.145 246.668C323.804 248.545 323.591 250.38 323.505 252.172C326.065 252.087 328.199 251.703 329.905 251.02C331.697 250.337 333.148 249.484 334.257 248.46C335.367 247.436 336.177 246.327 336.689 245.132C337.201 243.937 337.457 242.828 337.457 241.804C337.457 240.183 336.988 238.903 336.049 237.964C335.196 236.94 334.044 236.428 332.593 236.428ZM387.955 228.108C390.174 226.145 392.734 224.695 395.635 223.756C398.537 222.817 401.566 222.348 404.723 222.348C411.379 222.348 416.115 224.353 418.931 228.364C421.747 232.375 423.155 237.793 423.155 244.62V287.5H402.803V247.564C402.803 244.577 402.419 242.188 401.651 240.396C400.969 238.519 399.646 237.58 397.683 237.58C396.574 237.58 395.422 237.964 394.227 238.732C393.118 239.415 392.094 240.481 391.155 241.932C390.217 243.297 389.449 245.004 388.851 247.052C388.254 249.015 387.955 251.233 387.955 253.708V287.5H367.731V198.156L387.955 194.7V228.108ZM490.866 256.652C490.866 261.772 491.208 266.039 491.89 269.452C492.573 272.865 493.384 275.596 494.322 277.644C495.346 280.119 496.541 282.039 497.906 283.404L481.65 288.524C480.712 287.671 479.858 286.604 479.09 285.324C478.408 284.215 477.725 282.892 477.042 281.356C476.445 279.735 475.933 277.857 475.506 275.724C474.056 279.735 471.922 282.849 469.106 285.068C466.29 287.201 462.578 288.268 457.97 288.268C453.789 288.268 450.12 287.5 446.962 285.964C443.89 284.428 441.33 282.295 439.282 279.564C437.234 276.748 435.698 273.377 434.674 269.452C433.736 265.527 433.266 261.175 433.266 256.396C433.266 251.532 434.034 247.009 435.57 242.828C437.192 238.647 439.41 235.063 442.226 232.076C445.042 229.004 448.413 226.615 452.338 224.908C456.264 223.201 460.616 222.348 465.394 222.348C468.04 222.348 470.856 222.561 473.842 222.988C476.829 223.329 479.56 223.756 482.034 224.268C484.509 224.695 486.557 225.121 488.178 225.548C489.885 225.889 490.781 226.06 490.866 226.06V256.652ZM461.298 273.42C462.578 273.42 463.773 272.865 464.882 271.756C466.077 270.647 467.101 269.153 467.954 267.276C468.808 265.399 469.448 263.265 469.874 260.876C470.386 258.401 470.642 255.799 470.642 253.068V238.22C470.045 237.964 469.192 237.751 468.082 237.58C467.058 237.324 466.162 237.196 465.394 237.196C463.346 237.196 461.64 237.665 460.274 238.604C458.909 239.457 457.8 240.695 456.946 242.316C456.178 243.852 455.624 245.729 455.282 247.948C454.941 250.167 454.77 252.556 454.77 255.116C454.77 257.505 454.813 259.809 454.898 262.028C454.984 264.161 455.24 266.081 455.666 267.788C456.178 269.495 456.861 270.86 457.714 271.884C458.568 272.908 459.762 273.42 461.298 273.42ZM560.491 256.652C560.491 261.772 560.833 266.039 561.515 269.452C562.198 272.865 563.009 275.596 563.947 277.644C564.971 280.119 566.166 282.039 567.531 283.404L551.275 288.524C550.337 287.671 549.483 286.604 548.715 285.324C548.033 284.215 547.35 282.892 546.667 281.356C546.07 279.735 545.558 277.857 545.131 275.724C543.681 279.735 541.547 282.849 538.731 285.068C535.915 287.201 532.203 288.268 527.595 288.268C523.414 288.268 519.745 287.5 516.587 285.964C513.515 284.428 510.955 282.295 508.907 279.564C506.859 276.748 505.323 273.377 504.299 269.452C503.361 265.527 502.891 261.175 502.891 256.396C502.891 251.532 503.659 247.009 505.195 242.828C506.817 238.647 509.035 235.063 511.851 232.076C514.667 229.004 518.038 226.615 521.963 224.908C525.889 223.201 530.241 222.348 535.019 222.348C537.665 222.348 540.481 222.561 543.467 222.988C546.454 223.329 549.185 223.756 551.659 224.268C554.134 224.695 556.182 225.121 557.803 225.548C559.51 225.889 560.406 226.06 560.491 226.06V256.652ZM530.923 273.42C532.203 273.42 533.398 272.865 534.507 271.756C535.702 270.647 536.726 269.153 537.579 267.276C538.433 265.399 539.073 263.265 539.499 260.876C540.011 258.401 540.267 255.799 540.267 253.068V238.22C539.67 237.964 538.817 237.751 537.707 237.58C536.683 237.324 535.787 237.196 535.019 237.196C532.971 237.196 531.265 237.665 529.899 238.604C528.534 239.457 527.425 240.695 526.571 242.316C525.803 243.852 525.249 245.729 524.907 247.948C524.566 250.167 524.395 252.556 524.395 255.116C524.395 257.505 524.438 259.809 524.523 262.028C524.609 264.161 524.865 266.081 525.291 267.788C525.803 269.495 526.486 270.86 527.339 271.884C528.193 272.908 529.387 273.42 530.923 273.42ZM576.356 198.156L596.58 194.7V228.748C599.908 224.481 604.346 222.348 609.892 222.348C613.903 222.348 617.402 223.116 620.388 224.652C623.46 226.188 625.978 228.364 627.94 231.18C629.988 233.911 631.482 237.239 632.42 241.164C633.444 245.089 633.956 249.484 633.956 254.348C633.956 259.212 633.146 263.735 631.524 267.916C629.988 272.012 627.812 275.596 624.996 278.668C622.18 281.655 618.81 284.001 614.884 285.708C610.959 287.415 606.607 288.268 601.828 288.268C599.183 288.268 596.41 288.097 593.508 287.756C590.692 287.415 588.047 287.031 585.572 286.604C583.183 286.177 581.135 285.793 579.428 285.452C577.722 285.025 576.698 284.727 576.356 284.556V198.156ZM605.924 237.196C604.559 237.196 603.279 237.793 602.084 238.988C600.975 240.183 599.994 241.761 599.14 243.724C598.372 245.687 597.732 247.991 597.22 250.636C596.794 253.281 596.58 256.012 596.58 258.828V272.524C597.092 272.695 597.86 272.908 598.884 273.164C599.994 273.335 600.975 273.42 601.828 273.42C603.876 273.42 605.583 272.993 606.948 272.14C608.314 271.201 609.38 269.964 610.148 268.428C611.002 266.807 611.599 264.929 611.94 262.796C612.282 260.577 612.452 258.188 612.452 255.628C612.452 253.239 612.41 250.935 612.324 248.716C612.239 246.497 611.94 244.535 611.428 242.828C611.002 241.121 610.362 239.756 609.508 238.732C608.655 237.708 607.46 237.196 605.924 237.196ZM660.347 288.012C655.483 288.012 651.558 286.775 648.571 284.3C645.585 281.74 644.091 278.156 644.091 273.548V223.244H664.315V267.788C664.315 269.751 664.614 271.073 665.211 271.756C665.809 272.439 666.705 272.78 667.899 272.78C668.582 272.78 669.265 272.737 669.947 272.652C670.63 272.481 671.057 272.353 671.227 272.268L673.019 284.94C672.934 285.025 672.55 285.239 671.867 285.58C671.185 285.836 670.289 286.177 669.179 286.604C668.07 286.945 666.747 287.244 665.211 287.5C663.675 287.841 662.054 288.012 660.347 288.012ZM654.459 192.396C658.043 192.396 660.774 193.463 662.651 195.596C664.529 197.729 665.467 200.417 665.467 203.66C665.467 206.988 664.486 209.761 662.523 211.98C660.646 214.199 657.787 215.308 653.947 215.308C650.363 215.308 647.59 214.241 645.627 212.108C643.75 209.889 642.811 207.287 642.811 204.3C642.811 200.887 643.793 198.071 645.755 195.852C647.718 193.548 650.619 192.396 654.459 192.396ZM674.715 223.756H685.211L687.387 210.572L704.923 206.732V223.756H720.027L717.595 238.604H704.923V267.148C704.923 270.903 706.886 272.78 710.811 272.78C712.945 272.78 714.993 272.567 716.955 272.14C717.979 271.884 719.003 271.628 720.027 271.372L723.483 284.94C721.777 285.537 719.387 286.22 716.315 286.988C713.329 287.671 709.659 288.012 705.307 288.012C698.907 288.012 693.873 286.689 690.203 284.044C686.619 281.399 684.827 276.919 684.827 270.604V238.604H674.715V223.756Z" fill="#2E0B55"/>
</svg>
